<svg width="40" height="40" viewBox="0 0 40 40" fill="none" xmlns="http://www.w3.org/2000/svg">
<path d="M24.2426 23.9403C24.2426 22.297 22.6789 20.9225 20.6062 20.6061V27.2727C22.6789 26.9563 24.2426 25.5835 24.2426 23.9403Z" fill="#8990A5"/>
<path d="M15.1516 15.4545C15.1516 17.0974 16.7152 18.4716 18.788 18.7879V12.1212C16.7171 12.4375 15.1516 13.8117 15.1516 15.4545Z" fill="#8990A5"/>
<path fill-rule="evenodd" clip-rule="evenodd" d="M0 20C0 8.97217 8.97217 0 20 0C31.0296 0 40 8.97217 40 20C40 31.0278 31.0278 40 20 40C8.97217 40 0 31.0278 0 20ZM20.8694 29.4904C23.812 29.1252 26.0868 26.9704 26.0868 24.3478C26.0868 21.7252 23.812 19.5704 20.8694 19.2052V12.2435C22.852 12.567 24.3477 13.9722 24.3477 15.6522C24.3477 16.1322 24.7372 16.5217 25.2172 16.5217C25.6972 16.5217 26.0868 16.1322 26.0868 15.6522C26.0868 13.0296 23.812 10.8748 20.8694 10.5096V9.56522C20.8694 9.08522 20.4798 8.69565 19.9998 8.69565C19.5198 8.69565 19.1303 9.08522 19.1303 9.56522V10.5078C16.1877 10.873 13.9129 13.0278 13.9129 15.6504C13.9129 18.273 16.1877 20.4278 19.1303 20.793V27.7548C17.1477 27.4313 15.652 26.0261 15.652 24.3461C15.652 23.8661 15.2625 23.4765 14.7825 23.4765C14.3025 23.4765 13.9129 23.8661 13.9129 24.3461C13.9129 26.9687 16.1877 29.1235 19.1303 29.4887V30.4348C19.1303 30.9148 19.5198 31.3043 19.9998 31.3043C20.4798 31.3043 20.8694 30.9148 20.8694 30.4348V29.4904Z" fill="#8990A5"/>
</svg>
