<svg width="40" height="40" viewBox="0 0 40 40" fill="none" xmlns="http://www.w3.org/2000/svg">
<path d="M20.6 12H15.5V19H20.6C22.4751 19 24 17.4303 24 15.5C24 13.5698 22.4751 12 20.6 12Z" fill="#8990A5"/>
<path fill-rule="evenodd" clip-rule="evenodd" d="M0 20C0 8.97217 8.97217 0 20 0C31.0278 0 40 8.97217 40 20C40 31.0278 31.0278 40 20 40C8.97217 40 0 31.0278 0 20ZM20.8694 29.5652C23.7459 29.5652 26.0868 27.2243 26.0868 24.3478C26.0868 22.5339 25.1581 20.9357 23.7494 20C25.1581 19.0644 26.0868 17.4643 26.0868 15.6522C26.0868 12.7757 23.7459 10.4348 20.8694 10.4348V9.56522C20.8694 9.08522 20.4798 8.69565 19.9998 8.69565C19.5198 8.69565 19.1303 9.08522 19.1303 9.56522V10.4348H17.3912V9.56522C17.3912 9.08522 17.0016 8.69565 16.5216 8.69565C16.0416 8.69565 15.652 9.08522 15.652 9.56522V10.4348H14.7825C14.3025 10.4348 13.9129 10.8243 13.9129 11.3043V28.6957C13.9129 29.1757 14.3025 29.5652 14.7825 29.5652H15.652V30.4348C15.652 30.9148 16.0416 31.3043 16.5216 31.3043C17.0016 31.3043 17.3912 30.9148 17.3912 30.4348V29.5652H19.1303V30.4348C19.1303 30.9148 19.5198 31.3043 19.9998 31.3043C20.4798 31.3043 20.8694 30.9148 20.8694 30.4348V29.5652Z" fill="#8990A5"/>
<path d="M20.6 20.5H15.5V27.5H20.6C22.4751 27.5 24 25.9303 24 24C24 22.0698 22.4751 20.5 20.6 20.5Z" fill="#8990A5"/>
</svg>
