<svg width="60" height="38" viewBox="0 0 60 38" fill="none" xmlns="http://www.w3.org/2000/svg">
<path d="M48.5556 22.8889H46.1111C45.4389 22.8889 44.8889 23.4389 44.8889 24.1111V26.5556C44.8889 27.2278 45.4389 27.7778 46.1111 27.7778H48.5556C49.2278 27.7778 49.7778 27.2278 49.7778 26.5556V24.1111C49.7778 23.4389 49.2278 22.8889 48.5556 22.8889Z" fill="#8990A5"/>
<path d="M60 5.55556V4.2963C60 0.825778 57.1975 -2 53.75 -2H6.25C2.805 -2 0 0.825778 0 4.2963V5.55556H60Z" fill="#8990A5"/>
<rect y="8.22223" width="60" height="4.88889" fill="#8990A5"/>
<path fill-rule="evenodd" clip-rule="evenodd" d="M0 31.7037V15.3333H60V31.7037C60 35.1767 57.1975 38 53.75 38H6.25C2.805 38 0 35.1767 0 31.7037ZM8.75 30.4444H23.75C24.44 30.4444 25 29.8803 25 29.1852C25 28.4901 24.44 27.9259 23.75 27.9259H8.75C8.06 27.9259 7.5 28.4901 7.5 29.1852C7.5 29.8803 8.06 30.4444 8.75 30.4444ZM23.75 25.4074H8.75C8.06 25.4074 7.5 24.8432 7.5 24.1481C7.5 23.453 8.06 22.8889 8.75 22.8889H23.75C24.44 22.8889 25 23.453 25 24.1481C25 24.8432 24.44 25.4074 23.75 25.4074ZM48.75 30.4444C50.8175 30.4444 52.5 28.7495 52.5 26.6666V24.1481C52.5 22.0653 50.8175 20.3703 48.75 20.3703H46.25C44.1825 20.3703 42.5 22.0653 42.5 24.1481V26.6666C42.5 28.7495 44.1825 30.4444 46.25 30.4444H48.75Z" fill="#8990A5"/>
</svg>
