<svg width="114" height="40" viewBox="0 0 114 40" fill="none" xmlns="http://www.w3.org/2000/svg">
<path d="M6.46773 0C2.89253 0 0 2.86813 0 6.40907V33.5917C0 37.1299 2.89253 39.9996 6.46773 39.9996H33.9091C37.4815 39.9996 40.3752 37.13 40.3752 33.5917V33.3136C40.255 33.2639 29.8821 28.9776 24.6099 26.466C21.0529 30.8025 16.4651 33.4335 11.7016 33.4335C3.64667 33.4335 0.911333 26.4495 4.72533 21.852C5.55696 20.8499 6.9716 19.8924 9.1672 19.3564C12.6019 18.5204 18.068 19.8784 23.1912 21.5533C24.1127 19.8715 24.888 18.0192 25.4655 16.0471H9.67747V14.4629H17.8184V11.6225H7.95827V10.0371H17.8184V5.98521C17.8184 5.98521 17.8184 5.30267 18.5166 5.30267H22.4963V10.0371H32.2439V11.6225H22.4963V14.4629H30.4528C29.6915 17.5531 28.5355 20.3975 27.0843 22.8944C29.4991 23.7597 31.6667 24.5805 33.2822 25.1165C38.6706 26.9028 40.1807 27.1211 40.3756 27.1439V6.4092C40.3756 2.86827 37.4818 0.000133333 33.9095 0.000133333H6.46817L6.46773 0ZM10.8953 21.672C10.5496 21.676 10.2023 21.6946 9.85236 21.7288C8.84373 21.8293 6.94996 22.2703 5.91463 23.1774C2.81143 25.8586 4.66876 30.7602 10.9496 30.7602C14.6006 30.7602 18.2486 28.4477 21.1144 24.7449C17.4198 22.9589 14.2376 21.6336 10.8953 21.672L10.8953 21.672Z" fill="#8990A5"/>
<path d="M110.597 27.8067L108.795 31.6952L106.966 27.8067H105.179L107.962 33.1829V36.9332H109.601V33.1829L109.611 33.162L112.382 27.8067L110.597 27.8067ZM97.4013 30.1592L98.6726 33.9444H96.085L97.4013 30.1592ZM99.0631 35.0945L99.6756 36.9327H101.394L98.011 27.806H96.6975L93.326 36.9327H95.0455L95.6847 35.0945H99.0631ZM86.2413 32.1696H84.4165V29.0473H86.2413C87.1586 29.0473 87.7065 29.8443 87.7065 30.6147C87.7065 31.3684 87.1937 32.1695 86.2413 32.1695V32.1696ZM86.334 27.8064H82.7644V36.9331H84.4164V33.4243H86.3339C88.1151 33.4243 89.3597 32.2686 89.3597 30.6147C89.3597 28.9607 88.1151 27.8065 86.3339 27.8065L86.334 27.8064ZM74.4131 36.9332H76.0665V27.8065H74.4131V36.9332ZM62.7913 27.8067V36.9333H68.3528V35.6898H64.4433V27.8067L62.7913 27.8067ZM53.3798 30.1592L54.6497 33.9444H52.0635L53.3798 30.1592ZM55.0416 35.0945L55.6541 36.9327H57.3708L53.9881 27.806H52.676L49.3046 36.9327H51.0226L51.6617 35.0945H55.0416ZM66.6723 9.9652H59.5852V7.44174H67.8032V5.87014H59.5852V2.67254H55.9216C55.5199 2.67254 55.1954 3.00751 55.1954 3.41924V5.87018H47.035V7.44178H55.1954V9.96524H48.3078V11.5354H62.0264C62.0264 11.5354 61.2664 14.4846 57.5031 17.6542C54.1316 15.1182 53.005 13.0986 53.005 13.0986H49.3244C50.8135 15.6626 52.9291 17.7156 55.2076 19.3444C53.1146 20.6955 50.4004 21.9978 46.8914 23.0403V24.9218C46.8914 24.9218 52.3054 23.9071 57.5381 20.8435C62.7793 23.8834 68.0431 24.9218 68.0431 24.9218V23.1408C64.6744 21.9224 62.0053 20.5824 59.9095 19.29C62.9452 17.0555 65.6059 14.0226 66.672 9.96524L66.6723 9.9652ZM89.6933 2.98738H86.0044V6.81724H76.9113V8.35951H86.0044V22.1288C85.9721 22.4443 85.722 22.6899 85.4088 22.7067H83.5334V24.302H88.3153C89.0725 24.2713 89.6765 23.6474 89.6934 22.8741V8.35947H91.1909V6.8172H89.6934L89.6933 2.98738ZM81.9136 10.9576C81.7787 10.6841 81.5034 10.4957 81.1831 10.4929H78.1095L80.5047 17.9851H84.1403L81.9136 10.9576ZM72.8347 2.80604L68.6035 12.7506H71.8499V24.5835H75.3997V8.88751H74.113L76.7863 2.80631L72.8347 2.80604ZM113.999 24.0407L112.702 19.6888C112.615 19.4111 112.362 19.2101 112.061 19.2101H108.624L109.621 22.5529H105.58V16.0768H113.515V14.5358H105.58V11.4876H113.515V9.94664H93.7127V11.4876H101.647V14.5358H93.7127V16.0768H101.647V22.5529H93.7127V24.0938H113.999L113.983 24.0408L113.999 24.0407ZM97.8387 6.27004H109.396V8.54364H113.524V5.84991C113.523 5.84433 113.523 5.84153 113.523 5.83456C113.523 5.22881 113.045 4.73892 112.454 4.72914H105.773V2.60901H101.453V4.72914H93.7114V8.54368H97.8386L97.8387 6.27004Z" fill="#8990A5"/>
</svg>
