<svg width="145" height="20" viewBox="0 0 145 20" fill="none" xmlns="http://www.w3.org/2000/svg">
<g opacity="0.4">
<path d="M133.373 0.695722L130.81 5.86696L125.076 6.69889C124.047 6.8473 123.635 8.10887 124.381 8.83144L128.53 12.8544L127.548 18.5373C127.372 19.5645 128.459 20.3339 129.37 19.8535L134.5 17.1702L139.63 19.8535C140.541 20.33 141.628 19.5645 141.452 18.5373L140.47 12.8544L144.619 8.83144C145.365 8.10887 144.953 6.8473 143.924 6.69889L138.19 5.86696L135.627 0.695722C135.167 -0.226039 133.837 -0.237757 133.373 0.695722Z" fill="#FFA900"/>
</g>
<path d="M135 0C134.531 0 134.062 0.2305 133.82 0.695408L131.135 5.86799L125.127 6.69623C124.049 6.84469 123.618 8.10658 124.399 8.82933L128.745 12.8533L127.717 18.5377C127.532 19.5574 128.663 20.3348 129.625 19.8543L135 17.1742V0Z" fill="#FFA900"/>
<path d="M102.373 0.695722L99.8103 5.86696L94.0755 6.69889C93.0471 6.8473 92.635 8.10887 93.3808 8.83144L97.5297 12.8544L96.5484 18.5373C96.3718 19.5645 97.4591 20.3339 98.3697 19.8535L103.5 17.1702L108.63 19.8535C109.541 20.33 110.628 19.5645 110.452 18.5373L109.47 12.8544L113.619 8.83144C114.365 8.10887 113.953 6.8473 112.924 6.69889L107.19 5.86696L104.627 0.695722C104.167 -0.226039 102.837 -0.237757 102.373 0.695722Z" fill="#FFA900"/>
<path d="M71.3735 0.695722L68.8103 5.86696L63.0755 6.69889C62.0471 6.8473 61.635 8.10887 62.3808 8.83144L66.5297 12.8544L65.5484 18.5373C65.3718 19.5645 66.4591 20.3339 67.3697 19.8535L72.5 17.1702L77.6303 19.8535C78.5409 20.33 79.6282 19.5645 79.4516 18.5373L78.4703 12.8544L82.6192 8.83144C83.365 8.10887 82.9529 6.8473 81.9245 6.69889L76.1897 5.86696L73.6265 0.695722C73.1673 -0.226039 71.8366 -0.237757 71.3735 0.695722Z" fill="#FFA900"/>
<path d="M40.3735 0.695722L37.8103 5.86696L32.0755 6.69889C31.0471 6.8473 30.635 8.10887 31.3808 8.83144L35.5297 12.8544L34.5484 18.5373C34.3718 19.5645 35.4591 20.3339 36.3697 19.8535L41.5 17.1702L46.6303 19.8535C47.5409 20.33 48.6282 19.5645 48.4516 18.5373L47.4703 12.8544L51.6192 8.83144C52.365 8.10887 51.9529 6.8473 50.9245 6.69889L45.1897 5.86696L42.6265 0.695722C42.1673 -0.226039 40.8366 -0.237757 40.3735 0.695722Z" fill="#FFA900"/>
<path d="M9.37346 0.695722L6.81029 5.86696L1.07553 6.69889C0.0471213 6.8473 -0.365027 8.10887 0.380766 8.83144L4.52973 12.8544L3.54842 18.5373C3.37179 19.5645 4.45908 20.3339 5.36973 19.8535L10.5 17.1702L15.6303 19.8535C16.5409 20.33 17.6282 19.5645 17.4516 18.5373L16.4703 12.8544L20.6192 8.83144C21.365 8.10887 20.9529 6.8473 19.9245 6.69889L14.1897 5.86696L11.6265 0.695722C11.1673 -0.226039 9.83664 -0.237757 9.37346 0.695722Z" fill="#FFA900"/>
</svg>
